<svg width="24" height="24" viewBox="0 0 24 24" fill="none" xmlns="http://www.w3.org/2000/svg">
<path fill-rule="evenodd" clip-rule="evenodd" d="M20.75 17.7494V8.99945C20.75 8.44716 21.1977 7.99945 21.75 7.99945C22.3023 7.99945 22.75 8.44716 22.75 8.99945V17.7494C22.75 20.5109 20.5114 22.7494 17.75 22.7494H6.24997C3.48854 22.7494 1.24997 20.5109 1.24997 17.7494L1.24997 8.99946C1.24997 8.44718 1.69768 7.99946 2.24997 7.99946C2.80225 7.99946 3.24997 8.44718 3.24997 8.99946L3.24997 17.7494C3.24997 19.4063 4.59312 20.7494 6.24997 20.7494H17.75C19.4068 20.7494 20.75 19.4063 20.75 17.7494Z" fill="#1E212C"/>
<path fill-rule="evenodd" clip-rule="evenodd" d="M1.44258 9.21446C1.76843 9.66037 2.39408 9.7577 2.83999 9.43184L11.41 3.16917C11.7614 2.91236 12.2386 2.91236 12.59 3.16917L21.16 9.43184C21.6059 9.7577 22.2315 9.66037 22.5574 9.21446C22.8832 8.76855 22.7859 8.14291 22.34 7.81706L13.77 1.55439C12.7157 0.783954 11.2842 0.783954 10.2299 1.55439L1.65995 7.81706C1.21404 8.14291 1.11672 8.76855 1.44258 9.21446Z" fill="#1E212C"/>
<path fill-rule="evenodd" clip-rule="evenodd" d="M1.42778 8.05524C1.74214 7.60115 2.36509 7.48789 2.81918 7.80226L10.2923 12.976C11.3197 13.6872 12.6803 13.6872 13.7076 12.976L21.1808 7.80226C21.6348 7.48789 22.2578 7.60115 22.5722 8.05524C22.8865 8.50932 22.7733 9.13227 22.3192 9.44664L14.846 14.6204C13.1338 15.8058 10.8661 15.8058 9.15392 14.6204L1.68076 9.44664C1.22667 9.13227 1.11341 8.50932 1.42778 8.05524Z" fill="#1E212C"/>
</svg>
