<svg width="24" height="24" viewBox="0 0 24 24" fill="none" xmlns="http://www.w3.org/2000/svg">
<path fill-rule="evenodd" clip-rule="evenodd" d="M4.33691 18.666C4.33691 16.2741 6.27715 14.3328 8.6691 14.3328H13.0013V18.666C13.0013 21.0579 11.061 22.9992 8.6691 22.9992C6.27715 22.9992 4.33691 21.0579 4.33691 18.666ZM8.6691 16.3328C7.38231 16.3328 6.33691 17.3781 6.33691 18.666C6.33691 19.954 7.38231 20.9992 8.6691 20.9992C9.95588 20.9992 11.0013 19.954 11.0013 18.666V16.3328H8.6691Z" fill="#1E212C"/>
<path fill-rule="evenodd" clip-rule="evenodd" d="M8.6691 9.66639C7.38231 9.66639 6.33691 10.7117 6.33691 11.9996C6.33691 13.2876 7.38231 14.3328 8.6691 14.3328L11.0013 14.3328V9.66639H8.6691ZM4.33691 11.9996C4.33691 9.60769 6.27715 7.66639 8.6691 7.66639H13.0013V16.3328L8.6691 16.3328C6.27715 16.3328 4.33691 14.3915 4.33691 11.9996Z" fill="#1E212C"/>
<path fill-rule="evenodd" clip-rule="evenodd" d="M8.6691 3C7.3823 3 6.33691 4.04527 6.33691 5.3332C6.33691 6.62113 7.3823 7.66639 8.6691 7.66639L11.0013 7.6664V3H8.6691ZM4.33691 5.3332C4.33691 2.94128 6.27716 1 8.6691 1H13.0013V9.6664L8.6691 9.66639C6.27716 9.66639 4.33691 7.72512 4.33691 5.3332Z" fill="#1E212C"/>
<path fill-rule="evenodd" clip-rule="evenodd" d="M11.0022 1H15.3344C17.7264 1 19.6666 2.94127 19.6666 5.3332C19.6666 7.72513 17.7264 9.6664 15.3344 9.6664L11.0013 9.66639L11.0022 1ZM13.0022 3L13.0013 7.66639L15.3344 7.6664C16.6212 7.6664 17.6666 6.62112 17.6666 5.3332C17.6666 4.04528 16.6212 3 15.3344 3H13.0022Z" fill="#1E212C"/>
<path fill-rule="evenodd" clip-rule="evenodd" d="M15.3344 9.6664C14.0476 9.6664 13.0022 10.7117 13.0022 11.9996C13.0022 13.2876 14.0476 14.3328 15.3344 14.3328C16.6212 14.3328 17.6666 13.2876 17.6666 11.9996C17.6666 10.7117 16.6212 9.6664 15.3344 9.6664ZM11.0022 11.9996C11.0022 9.60768 12.9425 7.6664 15.3344 7.6664C17.7264 7.6664 19.6666 9.60768 19.6666 11.9996C19.6666 14.3916 17.7264 16.3328 15.3344 16.3328C12.9425 16.3328 11.0022 14.3916 11.0022 11.9996Z" fill="#1E212C"/>
</svg>
