<svg width="24" height="24" viewBox="0 0 24 24" fill="none" xmlns="http://www.w3.org/2000/svg">
<path d="M15.7 22.9991C15.1 22.9991 14.7 22.5991 14.7 21.9991V17.6991C14.7 16.8991 14.7 16.8991 14.4 16.5991C14.1 16.2991 14 15.8991 14.2 15.5991C14.3 15.1991 14.7 14.9991 15 14.8991C17.8 14.5991 20.4 13.6991 20.4 9.1991C20.4 8.0991 20 7.0991 19.2 6.2991C18.9 5.9991 18.8 5.5991 19 5.1991C19.2 4.6991 19.3 4.2991 19.3 3.7991C19.3 3.4991 19.3 3.2991 19.2 2.9991C18.7 3.0991 17.8 3.3991 16.5 4.1991C16.3 4.2991 16 4.3991 15.7 4.2991C13.5 3.7991 11.3 3.7991 9.09996 4.2991C8.79996 4.3991 8.59996 4.2991 8.29996 4.1991C6.79996 3.3991 5.89996 3.0991 5.39996 2.9991C5.39996 3.2991 5.29996 3.5991 5.29996 3.7991C5.29996 4.2991 5.39996 4.7991 5.59996 5.1991C5.69996 5.5991 5.59996 5.9991 5.39996 6.2991C4.99996 6.6991 4.69996 7.1991 4.49996 7.6991C4.29996 8.1991 4.19996 8.6991 4.19996 9.2991C4.19996 13.4991 6.39996 14.5991 9.59996 14.9991C9.99996 14.9991 10.3 15.2991 10.4 15.6991C10.5 16.0991 10.4 16.4991 10.2 16.6991C9.89996 16.9991 9.89996 17.1991 9.89996 18.0991V19.7991V19.8991V22.0991C9.89996 22.6991 9.49996 23.0991 8.89996 23.0991C8.29996 23.0991 7.89996 22.6991 7.89996 22.0991V21.0991C4.89996 21.4991 3.69996 19.7991 2.79996 18.5991C2.39996 18.0991 2.09996 17.5991 1.79996 17.4991C1.29996 17.3991 0.899959 16.7991 1.09996 16.2991C1.29996 15.7991 1.79996 15.3991 2.29996 15.5991C3.29996 15.8991 3.89996 16.6991 4.49996 17.4991C5.29996 18.5991 5.99996 19.5991 7.89996 19.1991V18.2991C7.89996 17.8991 7.79996 17.3991 7.89996 16.7991C5.09996 16.1991 2.19996 14.5991 2.19996 9.3991C2.19996 8.5991 2.39996 7.7991 2.69996 7.0991C2.89996 6.5991 3.19996 5.9991 3.59996 5.5991C3.49996 5.0991 3.39996 4.5991 3.39996 3.9991C3.39996 3.1991 3.59996 2.4991 3.89996 1.7991C3.99996 1.2991 4.19996 1.0991 4.49996 1.0991C4.79996 0.999099 6.19996 0.799099 8.89996 2.3991C11.1 1.8991 13.4 1.8991 15.6 2.3991C18.3 0.799099 19.6 0.999099 20 1.0991C20.3 1.1991 20.5 1.3991 20.6 1.5991C21 2.2991 21.1 2.9991 21.2 3.7991C21.2 4.2991 21.2 4.8991 21 5.3991C21.9 6.4991 22.4 7.7991 22.4 9.1991C22.4 14.4991 19.4 16.0991 16.7 16.6991C16.8 16.9991 16.8 17.3991 16.7 17.6991V21.9991C16.7 22.5991 16.2 22.9991 15.7 22.9991Z" fill="#1E212C"/>
</svg>
