<svg width="24" height="24" viewBox="0 0 24 24" fill="none" xmlns="http://www.w3.org/2000/svg">
<path d="M12.2111 10.5019H22.0865C22.1955 11.1103 22.25 11.6914 22.25 12.2454C22.25 14.2159 21.8368 15.9753 21.0105 17.5236C20.1841 19.0719 19.0059 20.2819 17.4757 21.1537C15.9456 22.0254 14.1908 22.4613 12.2111 22.4613C10.7854 22.4613 9.42785 22.1866 8.13837 21.6372C6.84889 21.0878 5.73649 20.3455 4.80116 19.4102C3.86584 18.4748 3.12348 17.3624 2.57409 16.0729C2.0247 14.7835 1.75 13.4259 1.75 12.0002C1.75 10.5745 2.0247 9.21691 2.57409 7.92743C3.12348 6.63795 3.86584 5.52555 4.80116 4.59022C5.73649 3.6549 6.84889 2.91254 8.13837 2.36315C9.42785 1.81376 10.7854 1.53906 12.2111 1.53906C14.9354 1.53906 17.2737 2.45169 19.2261 4.27694L16.3792 7.01481C15.2623 5.93419 13.8729 5.39388 12.2111 5.39388C11.0397 5.39388 9.95681 5.68901 8.96246 6.27926C7.96811 6.86952 7.18034 7.6709 6.59917 8.68341C6.018 9.69593 5.72741 10.8015 5.72741 12.0002C5.72741 13.1989 6.018 14.3045 6.59917 15.317C7.18034 16.3295 7.96811 17.1309 8.96246 17.7211C9.95681 18.3114 11.0397 18.6065 12.2111 18.6065C13.0012 18.6065 13.7276 18.4975 14.3905 18.2796C15.0534 18.0616 15.5983 17.7892 16.0251 17.4623C16.4519 17.1354 16.8242 16.7631 17.142 16.3454C17.4599 15.9277 17.6937 15.5326 17.8435 15.1603C17.9934 14.788 18.0955 14.4339 18.15 14.0979H12.2111V10.5019Z" fill="#1E212C"/>
</svg>
